<svg xmlns="http://www.w3.org/2000/svg" viewBox="0 0 957.9 714.08"><defs><style>.cls-1{fill:#fff;}.cls-2,.cls-5{fill:#f4f4f4;}.cls-10,.cls-2,.cls-3,.cls-4{fill-rule:evenodd;}.cls-3,.cls-8{fill:#f0027f;}.cls-6{fill:#cbcbcb;}.cls-10,.cls-7{fill:#386cb0;}.cls-9{opacity:0.5;}</style></defs><g id="Layer_2" data-name="Layer 2"><g id="Layer_2-2" data-name="Layer 2"><rect x="10.49" y="234.06" width="266.69" height="197.27" rx="4"/><path d="M267.69,235.88V417.76a4,4,0,0,1-4,4H11.22V239.88a4,4,0,0,1,4-4Z"/><rect class="cls-1" x="1" y="224.49" width="266.69" height="197.27" rx="4"/><path d="M263.69,422.76H5a5,5,0,0,1-5-5V228.49a5,5,0,0,1,5-5H263.69a5,5,0,0,1,5,5V417.76A5,5,0,0,1,263.69,422.76ZM5,225.49a3,3,0,0,0-3,3V417.76a3,3,0,0,0,3,3H263.69a3,3,0,0,0,3-3V228.49a3,3,0,0,0-3-3Z"/><circle cx="109.32" cy="274.2" r="27"/><circle cx="138.41" cy="265.2" r="29.09"/><path class="cls-2" d="M155.34,349.19,168,399.1l-42.25,14.51-20.1-32.85,5.18-40a41,41,0,0,1-19.2-19.64,17.83,17.83,0,0,1-10.26,5.11,18,18,0,1,1,7.81-32.63,41,41,0,1,1,62.45,44.46Z"/><path d="M125.31,414.82,104.6,381l5.14-39.65a42.12,42.12,0,0,1-18.43-18.56A19,19,0,0,1,60,311a19,19,0,0,1,28.53-19,42,42,0,1,1,64.24,46.43l3.5,10.5,12.88,50.8Zm-18.63-34.28,19.49,31.87,40.62-14-12.41-49-3.95-11.83.63-.42a40.26,40.26,0,0,0,17.42-38.82,40,40,0,0,0-78.34-4.56l-.36,1.39-1.18-.82a17,17,0,1,0-7.38,30.82,16.74,16.74,0,0,0,9.69-4.82l1-1,.6,1.31a40,40,0,0,0,18.73,19.16l.64.32Z"/><path class="cls-3" d="M267.69,388.58v29.18a4,4,0,0,1-4,4H5a4,4,0,0,1-4-4v-7.54a99.36,99.36,0,0,1,10.22-11.81C43,367,92.16,358.12,109.32,355.2c0,0-2.2,50.49,30.13,46s15.89-52,15.89-52C178.27,347.08,240.35,375.43,267.69,388.58Z"/><path d="M263.69,422.76H5a5,5,0,0,1-5-5v-7.87l.19-.26A99.89,99.89,0,0,1,10.52,397.7c21.59-21.4,54.78-36,98.63-43.49l1.22-.21-.05,1.24c0,.28-1.08,28.53,11.77,40.21,4.52,4.11,10.31,5.71,17.22,4.75s12.06-4.08,15.23-9.26c9-14.62,0-41.16-.14-41.43l-.42-1.2,1.27-.12c10.1-.93,28.6,3.8,55,14,21.42,8.31,43.31,18.43,57.9,25.45l.57.27v29.81A5,5,0,0,1,263.69,422.76ZM2,410.55v7.21a3,3,0,0,0,3,3H263.69a3,3,0,0,0,3-3V389.21c-25.88-12.43-86.39-40.12-110-39.11,1.74,5.58,8,28.15-.44,41.88-3.5,5.72-9.11,9.15-16.66,10.2s-13.87-.72-18.85-5.25c-12.11-11-12.53-34.78-12.45-40.54C65.44,363.84,33,378.21,11.92,399.12A98.69,98.69,0,0,0,2,410.55Z"/><path class="cls-2" d="M259.47,302.94l-7.12,25.34.06,0-26.24,93.46h-60l28.27-96.57-4.32-24.14a6.79,6.79,0,0,1,5.48-7.88,6.71,6.71,0,0,1,3,.15,6.8,6.8,0,0,1,4.85,5.34l3,16.73,3.51,1,7-25.07a7,7,0,0,1,8.65-4.92,6.77,6.77,0,0,1,4.5,8.31l-6.9,24.55a.83.83,0,0,0,.58,1,.91.91,0,0,0,.23,0,.82.82,0,0,0,.79-.6l6.82-24.27a7,7,0,0,1,8.62-4.93,6.76,6.76,0,0,1,4.52,8.32l-6.9,24.55a.83.83,0,0,0,.8,1.05.81.81,0,0,0,.8-.6l6.82-24.3a7,7,0,0,1,7.95-5.07,6.77,6.77,0,0,1,5.19,8.49Z"/><path d="M226.93,422.76H164.82l28.57-97.63-4.27-23.91a7.64,7.64,0,0,1,1.26-5.81,7.77,7.77,0,0,1,8.5-3.06,7.85,7.85,0,0,1,5.56,6.13l2.88,16.11,2,.55L216,291a8.25,8.25,0,0,1,4-5,7.6,7.6,0,0,1,5.92-.62,7.79,7.79,0,0,1,5.43,8.07,8.26,8.26,0,0,1,3.31-3.32,7.57,7.57,0,0,1,5.89-.64,7.74,7.74,0,0,1,5.46,8,7.9,7.9,0,0,1,8.44-4.1,7.76,7.76,0,0,1,6,9.74h0l-6.86,24.42-.2.94Zm-59.45-2h57.93L251.19,329l.2-.94,7.12-25.34a5.77,5.77,0,0,0-4.43-7.24,6,6,0,0,0-6.79,4.36l-6.82,24.3a1.8,1.8,0,0,1-1.76,1.33,2.08,2.08,0,0,1-.5-.07,1.84,1.84,0,0,1-1.27-2.25l6.91-24.55a5.79,5.79,0,0,0-3.85-7.1,5.58,5.58,0,0,0-4.36.49,6.24,6.24,0,0,0-3,3.76L225.81,320a1.83,1.83,0,0,1-3.52-1l6.9-24.55a5.77,5.77,0,0,0-3.84-7.09,5.57,5.57,0,0,0-4.36.47,6.22,6.22,0,0,0-3,3.77l-7.31,26-5.07-1.43-3.1-17.35a5.85,5.85,0,0,0-4.14-4.55,5.75,5.75,0,0,0-6.31,2.27,5.72,5.72,0,0,0-.95,4.32l4.37,24.37Zm71.07-97.21h0Z"/><path d="M221.14,357.15l-2-.34c2.4-14.11-5.38-23-10-28.32l1.51-1.31C215.21,332.39,223.7,342.09,221.14,357.15Z"/><path d="M263.69,422.76H5a5,5,0,0,1-5-5V228.49a5,5,0,0,1,5-5H263.69a5,5,0,0,1,5,5V417.76A5,5,0,0,1,263.69,422.76ZM5,225.49a3,3,0,0,0-3,3V417.76a3,3,0,0,0,3,3H263.69a3,3,0,0,0,3-3V228.49a3,3,0,0,0-3-3Z"/><circle cx="122.46" cy="305.39" r="2.98"/><circle cx="149.64" cy="300.32" r="2.98"/><rect x="0.9" y="234.98" width="266.22" height="2"/><path d="M8.71,235.44a4.71,4.71,0,1,1,4.7-4.71A4.71,4.71,0,0,1,8.71,235.44Zm0-7.41a2.71,2.71,0,1,0,2.7,2.7A2.71,2.71,0,0,0,8.71,228Z"/><path d="M19.12,235.44a4.71,4.71,0,1,1,4.7-4.71A4.71,4.71,0,0,1,19.12,235.44Zm0-7.41a2.71,2.71,0,1,0,2.7,2.7A2.7,2.7,0,0,0,19.12,228Z"/><path d="M131.16,309.35h15.43a0,0,0,0,1,0,0v1.35a7.71,7.71,0,0,1-7.71,7.71h0a7.71,7.71,0,0,1-7.71-7.71v-1.35A0,0,0,0,1,131.16,309.35Z" transform="matrix(0.96, -0.26, 0.26, 0.96, -77.49, 47.43)"/><path class="cls-4" d="M162.48,280c-27.77,2.6-37.37-12.3-39-15.92a.24.24,0,0,0-.45.07c-3.08,16-19.41,24.36-33.53,28.37L89.59,270s20.3-12.08,32.57-13.41C147.51,253.82,162.48,280,162.48,280Z"/><line class="cls-5" x1="74.22" y1="305.06" x2="82.06" y2="313.88"/><rect x="77.14" y="303.57" width="2" height="11.8" transform="translate(-185.86 130.08) rotate(-41.63)"/><line class="cls-5" x1="78.88" y1="309.96" x2="81.32" y2="303.59"/><rect x="76.69" y="305.77" width="6.82" height="2" transform="translate(-234.96 271.27) rotate(-68.94)"/><rect x="234.52" y="11.98" width="257" height="254.57" rx="4"/><rect class="cls-1" x="224.79" y="1" width="257" height="254.57" rx="4"/><path d="M477.79,256.57h-249a5,5,0,0,1-5-5V5a5,5,0,0,1,5-5h249a5,5,0,0,1,5,5V251.57A5,5,0,0,1,477.79,256.57ZM228.79,2a3,3,0,0,0-3,3V251.57a3,3,0,0,0,3,3h249a3,3,0,0,0,3-3V5a3,3,0,0,0-3-3Z"/><rect x="224.8" y="11.11" width="257.22" height="2"/><path d="M232.6,11.56a4.7,4.7,0,1,1,4.71-4.7A4.71,4.71,0,0,1,232.6,11.56Zm0-7.4a2.7,2.7,0,1,0,2.71,2.7A2.7,2.7,0,0,0,232.6,4.16Z"/><path d="M243,11.56a4.7,4.7,0,1,1,4.7-4.7A4.71,4.71,0,0,1,243,11.56Zm0-7.4a2.7,2.7,0,1,0,2.7,2.7A2.71,2.71,0,0,0,243,4.16Z"/><rect x="241.4" y="29.8" width="183.02" height="2"/><rect x="241.4" y="46.1" width="183.02" height="2"/><rect x="241.4" y="62.39" width="93.02" height="2"/><rect class="cls-6" x="272.34" y="110.1" width="23.14" height="122.33"/><path d="M296.49,233.43H271.34V109.1h25.15Zm-23.15-2h21.15V111.1H273.34Z"/><rect class="cls-7" x="303.2" y="83.57" width="23.14" height="148.86"/><path d="M327.34,233.43H302.2V82.57h25.14Zm-23.14-2h21.14V84.57H304.2Z"/><rect class="cls-6" x="334.06" y="110.1" width="23.14" height="122.33"/><path d="M358.2,233.43H333.06V109.1H358.2Zm-23.14-2H356.2V111.1H335.06Z"/><rect class="cls-8" x="367.28" y="164.56" width="23.14" height="67.87"/><path d="M391.43,233.43H366.28V163.56h25.15Zm-23.15-2h21.15V165.56H368.28Z"/><rect class="cls-6" x="398.14" y="140.19" width="23.14" height="92.24"/><path d="M422.28,233.43H397.14V139.19h25.14Zm-23.14-2h21.14V141.19H399.14Z"/><path class="cls-2" d="M891,680.56h0a9.93,9.93,0,0,1-9.92,9.93H790.48a9.94,9.94,0,0,1-9.93-9.93h0a9.93,9.93,0,0,1,9.93-9.92H816.3v-27H856v27h25A9.92,9.92,0,0,1,891,680.56Z"/><path d="M881.05,691.49H790.48a10.93,10.93,0,1,1,0-21.85H815.3v-27H857v27h24a10.93,10.93,0,0,1,0,21.85Zm-90.57-19.85a8.93,8.93,0,1,0,0,17.85h90.57a8.93,8.93,0,0,0,0-17.85H855v-27H817.3v27Z"/><rect class="cls-5" x="702.71" y="475.22" width="254.19" height="175.55" rx="4"/><path d="M952.9,651.78H706.71a5,5,0,0,1-5-5V479.22a5,5,0,0,1,5-5H952.9a5,5,0,0,1,5,5V646.78A5,5,0,0,1,952.9,651.78ZM706.71,476.22a3,3,0,0,0-3,3V646.78a3,3,0,0,0,3,3H952.9a3,3,0,0,0,3-3V479.22a3,3,0,0,0-3-3Z"/><rect class="cls-6" x="845.46" y="514.03" width="87.09" height="101.86"/><path d="M933.55,616.89H844.46V513h89.09Zm-87.09-2h85.09V515H846.46Z"/><rect x="702.78" y="487.59" width="253.9" height="2"/><path d="M712.53,487.66a5.63,5.63,0,1,1,5.62-5.63A5.64,5.64,0,0,1,712.53,487.66Zm0-9.25a3.63,3.63,0,1,0,3.62,3.62A3.63,3.63,0,0,0,712.53,478.41Z"/><path d="M725.54,487.66a5.63,5.63,0,1,1,5.63-5.63A5.64,5.64,0,0,1,725.54,487.66Zm0-9.25a3.63,3.63,0,1,0,3.63,3.62A3.63,3.63,0,0,0,725.54,478.41Z"/><rect x="721.94" y="529.58" width="103.03" height="2"/><rect x="721.94" y="549.94" width="103.03" height="2"/><rect x="721.94" y="570.29" width="103.03" height="2"/><rect x="721.94" y="590.65" width="103.03" height="2"/><rect x="721.94" y="611.01" width="55.18" height="2"/><polygon class="cls-2" points="553.2 600.51 575.18 662.53 626.62 643.77 600.15 566.64 553.2 600.51"/><path d="M574.57,663.82,552,600.14,600.66,565l27.23,79.34Zm-20.18-62.93,21.39,60.36,49.58-18.08-25.72-74.93Z"/><path class="cls-6" d="M563.18,649.39a5.36,5.36,0,0,1,9.55-4.77,23,23,0,0,0,40.75-20.79l1.18-.46A73.91,73.91,0,0,1,704.41,653L583.34,700.63Z"/><path d="M582.78,701.93l-20.53-52.18a6.28,6.28,0,0,1,.08-4.87,6.37,6.37,0,0,1,11.25-.8,22,22,0,0,0,39-19.88l-.37-.93,2.12-.84a74.91,74.91,0,0,1,91,30l.64,1Zm-14.65-58.86a4.27,4.27,0,0,0-1.56.29,4.37,4.37,0,0,0-2.46,5.66l19.79,50.32,119-46.83A72.88,72.88,0,0,0,615,624.3l-.28.1a24,24,0,0,1-42.86,20.75A4.49,4.49,0,0,0,568.13,643.07Z"/><path class="cls-8" d="M704.41,653a74.57,74.57,0,0,1,6,11.76.37.37,0,0,1-.2.47L588.61,713.05a.36.36,0,0,1-.46-.2l-4.81-12.22Z"/><path d="M588.48,714.08a1.29,1.29,0,0,1-.54-.12,1.31,1.31,0,0,1-.72-.74L582,700.07l122.78-48.31.44.7a75.89,75.89,0,0,1,6,11.92,1.35,1.35,0,0,1-.77,1.77L589,714A1.24,1.24,0,0,1,588.48,714.08Zm-3.84-12.88,4.2,10.69,120.37-47.37A74.17,74.17,0,0,0,704,654.23Zm124.81-36.08Z"/><path class="cls-4" d="M540.07,272.52c-40.38-7.23-81.41-.38-122.43-.17.91-8.78,2-18.09,7.5-25,3.62-4.56,8.78-7.58,13.34-11.2a60.11,60.11,0,0,0,18.37-24.63c1.81-4.49,3.09-9.24,5.59-13.39,4.11-6.84,14.64-19.43,22.57-20.24a123.29,123.29,0,0,1,22.89-.49c8.8.52,17.47,8.73,22.7,15.83a45.08,45.08,0,0,1,4.78,9.13l5,11.64c4.26,9.86,8.57,20,9.27,30.68C550.32,254.74,545.57,264.07,540.07,272.52Z"/><rect class="cls-5" x="433.33" y="607.51" width="54.95" height="67.51"/><path d="M489.27,676H432.33V606.51h56.94Zm-54.94-2h52.94V608.51H434.33Z"/><polygon class="cls-4" points="500.34 344.85 500.34 618.51 488.27 618.51 433.33 618.51 415.08 618.51 415.08 344.85 500.34 344.85"/><polygon class="cls-4" points="658.37 582.06 546.95 616.25 482.12 354.19 545.39 338.72 658.37 582.06"/><path class="cls-2" d="M512.8,245l1.74,9.35,4.56,41.41-35.48,6.91-12.44-28.56,8.62-31.48a33.26,33.26,0,0,1-13.19-17.89,14.58,14.58,0,1,1,1.11-22.34,31.4,31.4,0,0,1,1.7-3.5A33.18,33.18,0,1,1,512.8,245Z"/><path d="M483,303.84l-12.91-29.63,8.53-31.13a34.3,34.3,0,0,1-12.58-16.73,15.36,15.36,0,0,1-8.25,2.37,15.58,15.58,0,1,1,9.52-27.91c.38-.82.78-1.61,1.21-2.37a34.18,34.18,0,1,1,45.37,47.15l1.6,8.61,4.67,42.4Zm-10.79-29.78,12,27.51L518,295l-4.46-40.49-1.87-10,.69-.34a32,32,0,0,0,18.18-29,32.18,32.18,0,0,0-60.25-15.73,33.41,33.41,0,0,0-1.65,3.4l-.55,1.32-1-1a13.58,13.58,0,1,0-1,20.8l1.14-.87.42,1.38a32.31,32.31,0,0,0,12.79,17.35l.59.4Z"/><rect x="624.45" y="104.56" width="326.71" height="308.95" rx="4"/><rect class="cls-1" x="610.25" y="86.8" width="326.71" height="308.95" rx="4"/><path d="M932.12,397h-317a6,6,0,0,1-6-6V91.63a6,6,0,0,1,6-6h317a6,6,0,0,1,6,6V390.92A6,6,0,0,1,932.12,397ZM615.08,88a3.63,3.63,0,0,0-3.63,3.62V390.92a3.64,3.64,0,0,0,3.63,3.63h317a3.64,3.64,0,0,0,3.63-3.63V91.63A3.63,3.63,0,0,0,932.12,88Z"/><rect x="703.68" y="219.87" width="183.78" height="2.42" transform="translate(36.67 546.48) rotate(-38.74)"/><rect x="801.47" y="80.54" width="2.42" height="264.65" transform="translate(92.11 642.64) rotate(-46.02)"/><rect x="702.31" y="286.23" width="154.13" height="2.42" transform="translate(263.43 938.48) rotate(-71.85)"/><rect x="652.88" y="183.69" width="110.5" height="2.42" transform="translate(-23.24 157.86) rotate(-12.52)"/><circle class="cls-8" cx="654.19" cy="196.89" r="14.2"/><path d="M654.19,212.3a15.42,15.42,0,1,1,15.41-15.41A15.42,15.42,0,0,1,654.19,212.3Zm0-28.41a13,13,0,1,0,13,13A13,13,0,0,0,654.19,183.89Z"/><circle class="cls-8" cx="707.46" cy="120.98" r="14.2"/><path d="M707.46,136.39A15.41,15.41,0,1,1,722.87,121,15.42,15.42,0,0,1,707.46,136.39Zm0-28.41a13,13,0,1,0,13,13A13,13,0,0,0,707.46,108Z"/><circle class="cls-8" cx="724.48" cy="277.53" r="14.2"/><path d="M724.48,292.94a15.41,15.41,0,1,1,15.41-15.41A15.43,15.43,0,0,1,724.48,292.94Zm0-28.41a13,13,0,1,0,13,13A13,13,0,0,0,724.48,264.53Z"/><circle class="cls-8" cx="755.25" cy="360.98" r="14.2"/><path d="M755.25,376.39A15.41,15.41,0,1,1,770.67,361,15.42,15.42,0,0,1,755.25,376.39Zm0-28.41a13,13,0,1,0,13,13A13,13,0,0,0,755.25,348Z"/><circle class="cls-8" cx="867.55" cy="163.97" r="14.2"/><path d="M867.55,179.38A15.42,15.42,0,1,1,883,164,15.43,15.43,0,0,1,867.55,179.38Zm0-28.41a13,13,0,1,0,13,13A13,13,0,0,0,867.55,151Z"/><circle class="cls-8" cx="897.15" cy="304.11" r="14.2"/><path d="M897.15,319.52a15.41,15.41,0,1,1,15.41-15.41A15.43,15.43,0,0,1,897.15,319.52Zm0-28.41a13,13,0,1,0,13,13A13,13,0,0,0,897.15,291.11Z"/><path class="cls-2" d="M464.19,401.55a7,7,0,0,1-.64,1.73l-16,30.94a7.31,7.31,0,1,1-13-6.71L444,409.22l-.38-.07-10.24,19.79a7.31,7.31,0,0,1-13-6.71l8.66-16.74-.3-.11L419.65,423a7.3,7.3,0,1,1-13-6.72L415,400.18c-21.85-8.73-57.1-25.26-64.57-42.4-6.37-14.65,8-39.82,24-57.18l47.73,33.12-1.95,6.81-3.48,5.05h0c6.38,2.81,29.31,13.09,43,21.54,4.17,2.57,7.49,5,9.23,6.95C474.08,379.79,469,392.39,464.19,401.55Z"/><path d="M441,439.17a8.37,8.37,0,0,1-8.27-7.69A8.31,8.31,0,0,1,419,428.1a8.84,8.84,0,0,1-.39-2.15,8.31,8.31,0,0,1-12.82-10.09l7.85-15.16c-21.13-8.52-56.46-25-64.09-42.52-3-7-1.79-16.79,3.62-28.39,4.59-9.85,11.89-20.45,20.56-29.87l.59-.64,49,34L421.16,341l-2.89,4.19c7.81,3.47,29.08,13.12,42,21.11,4.6,2.83,7.78,5.24,9.46,7.14,5.37,6.07.46,18.82-4.64,28.5a7.81,7.81,0,0,1-.69,1.83l-16,30.94A8.34,8.34,0,0,1,441,439.17ZM443.11,408l2.41.5L435.46,428a6.3,6.3,0,1,0,11.2,5.79l16-30.94a5.66,5.66,0,0,0,.55-1.48l.09-.25c6.82-12.91,8.59-22.27,5-26.36-1.54-1.75-4.58-4-9-6.76-13.53-8.33-36.25-18.54-42.89-21.47l-.48-.21.43-1-.38-.26,3.38-4.92,1.71-6-46.42-32.21c-15.54,17.1-29.3,41.53-23.23,55.46,3.21,7.36,15.79,22.59,64,41.87l1,.41-8.86,17.12a6.31,6.31,0,0,0,11.2,5.8l9.52-18.42,2.15.76-.47,1-8.66,16.74a6.31,6.31,0,0,0,11.21,5.79Z"/><path class="cls-2" d="M418,340.15l.46-2L371.9,305.8c10.87-11.83,23.21-21.69,31.38-26.13L439.8,305Z"/><path class="cls-2" d="M674.34,409.58,497,323.58l27.7-57,204.94,99.53a7.7,7.7,0,0,1,3.56,10.28,7.69,7.69,0,0,1-10.28,3.56l-22.08-10.28.44.51a7.17,7.17,0,0,0-1.48-.94l-15.16-7.36a7.69,7.69,0,0,0-6.72,13.84l15.16,7.36a8,8,0,0,0,1.66.58l-.5,1a7.45,7.45,0,0,0-1.48-.94l-15.16-7.36a7.69,7.69,0,0,0-6.72,13.83l15.16,7.36a7.45,7.45,0,0,0,1.66.58l-.29.59a7.89,7.89,0,0,0-1.47-1l-15.16-7.36a7.69,7.69,0,0,0-6.73,13.84l15.16,7.37a7.42,7.42,0,0,0,1.66.57Z"/><path d="M680.66,413.17a8,8,0,0,1-1.87-.66l-.95-.46-3.94-1.57L495.68,324l28.57-58.82.9.44,204.94,99.53a8.69,8.69,0,1,1-7.6,15.64l-21.64-10.08-.19.19a6.34,6.34,0,0,0-1.28-.82l-15.16-7.37a6.7,6.7,0,0,0-5.85,12.05l15.16,7.36a6.75,6.75,0,0,0,1.43.5l1.24.27-1.6,3.31-1-.8a6.63,6.63,0,0,0-1.28-.82l-15.16-7.37a6.69,6.69,0,0,0-5.85,12l15.16,7.36a6.15,6.15,0,0,0,1.44.5l1.23.28-1.39,2.86-1-.8a6.81,6.81,0,0,0-1.28-.82l-15.16-7.36a6.69,6.69,0,1,0-5.85,12l14.15,6.87,2.6,1ZM498.35,323.12l161.38,78.26a9.87,9.87,0,0,1-.52-1.2,8.7,8.7,0,0,1,8.21-11.54,8.69,8.69,0,0,1,7.42-14A8.69,8.69,0,0,1,685.09,361l12.23,5.93,26,12.14a6.7,6.7,0,1,0,5.86-12l-204-99.1Z"/><path class="cls-2" d="M693.09,383.06l-15.16-7.36a7.69,7.69,0,0,1,6.72-13.84l15.16,7.36a7.17,7.17,0,0,1,1.48.94,7.69,7.69,0,0,1-6.54,13.48A8,8,0,0,1,693.09,383.06Z"/><path d="M696.45,384.83a8.47,8.47,0,0,1-1.93-.22,8.21,8.21,0,0,1-1.86-.65L677.5,376.6A8.69,8.69,0,0,1,685.09,361l15.16,7.36a8.69,8.69,0,0,1-3.8,16.51Zm-2.92-2.67a6.72,6.72,0,0,0,5.11.3,6.69,6.69,0,0,0,2-11.52,6.34,6.34,0,0,0-1.28-.82l-15.16-7.37a6.7,6.7,0,0,0-5.85,12.05Z"/><path class="cls-2" d="M686,397.44l-15.16-7.36a7.69,7.69,0,1,1,6.71-13.83l15.16,7.36a7.45,7.45,0,0,1,1.48.94A7.69,7.69,0,0,1,687.6,398,6.91,6.91,0,0,1,686,397.44Z"/><path d="M689.31,399.21a8.92,8.92,0,0,1-1.93-.21,9,9,0,0,1-1.87-.66L670.35,391a8.69,8.69,0,1,1,7.59-15.63l15.16,7.36a8.33,8.33,0,0,1,1.67,1.07,8.69,8.69,0,0,1-2.63,15A8.8,8.8,0,0,1,689.31,399.21Zm-15.16-22.73a6.69,6.69,0,0,0-2.93,12.7l15.16,7.36a6.17,6.17,0,0,0,1.44.51,6.69,6.69,0,0,0,5.69-11.72,6.34,6.34,0,0,0-1.28-.82l-15.16-7.36A6.63,6.63,0,0,0,674.15,376.48Z"/><path class="cls-2" d="M678.9,412.05l-15.16-7.36a7.7,7.7,0,0,1,6.72-13.85l15.16,7.37a7.45,7.45,0,0,1,1.48.94,7.69,7.69,0,0,1-6.55,13.48A7.91,7.91,0,0,1,678.9,412.05Z"/><path d="M682.26,413.82a8.89,8.89,0,0,1-3.8-.87l-15.16-7.37a8.69,8.69,0,0,1-4-11.62,8.71,8.71,0,0,1,11.61-4l15.16,7.37a8.33,8.33,0,0,1,1.67,1.07,8.69,8.69,0,0,1-5.47,15.44Zm-15.15-22.75a6.71,6.71,0,0,0-6,3.77,6.71,6.71,0,0,0,3.09,9l15.17,7.36a6.75,6.75,0,0,0,1.43.5,6.69,6.69,0,0,0,5.7-11.72,6.25,6.25,0,0,0-1.29-.82L670,391.74A6.69,6.69,0,0,0,667.11,391.07Z"/><path d="M485.46,230.9a15.29,15.29,0,1,1,15.29-15.29A15.31,15.31,0,0,1,485.46,230.9Zm0-28.57a13.29,13.29,0,1,0,13.29,13.28A13.3,13.3,0,0,0,485.46,202.33Z"/><path d="M522.79,230.9a15.29,15.29,0,1,1,6-29.37l-.78,1.84a13.29,13.29,0,1,0-5.17,25.53,13.09,13.09,0,0,0,5.17-1.05l.78,1.85A15.35,15.35,0,0,1,522.79,230.9Z"/><path class="cls-1" d="M528.74,229.7l-.78-1.85a13.29,13.29,0,0,0,0-24.48l.78-1.84a15.3,15.3,0,0,1,0,28.17Z"/><circle cx="493.07" cy="215.61" r="2.41"/><circle cx="527.27" cy="216.08" r="2.41"/><path d="M509.76,212.61h-2a3.66,3.66,0,1,0-7.32,0h-2a5.66,5.66,0,1,1,11.32,0Z"/><path class="cls-4" d="M527.69,199.62c-22.31-1.05-28.29-14-29.17-17a.18.18,0,0,0-.36,0c-4.23,12.44-18.53,19.14-30.24,20.77l-.28-.19c5.68-10.12,9.5-22.15,30.73-21.23C511.06,182.53,522.12,189.12,527.69,199.62Z"/><path class="cls-2" d="M650.26,616.79a18.45,18.45,0,0,0,2.21-6.7,5.86,5.86,0,0,0-1.1-4.08c-1.85-2.24-5.6-1.88-7.84,0s-3.31,4.72-4.3,7.45c-1.54,4.3-9.15,17.27-2.36,19.72C643.11,635.41,648.22,621,650.26,616.79Z"/><path d="M638.24,634.41a5,5,0,0,1-1.71-.31,4.84,4.84,0,0,1-2.94-2.72c-1.68-4,1.26-10.49,3.4-15.25.56-1.22,1-2.28,1.3-3,.93-2.57,2.08-5.78,4.6-7.88a7.64,7.64,0,0,1,5.52-1.73,5.33,5.33,0,0,1,3.73,1.88,6.78,6.78,0,0,1,1.33,4.78,19.56,19.56,0,0,1-2.31,7.08c-.29.59-.63,1.38-1,2.3C647.63,625.23,643.62,634.41,638.24,634.41Zm9.53-28.95a5.8,5.8,0,0,0-3.6,1.3c-2.1,1.75-3.15,4.67-4,7-.29.82-.78,1.91-1.35,3.18-1.77,3.92-4.73,10.48-3.39,13.64a2.86,2.86,0,0,0,1.78,1.61c4.48,1.62,8.94-8.58,11.08-13.49.42-.94.77-1.76,1.07-2.36h0a17.84,17.84,0,0,0,2.11-6.34,4.81,4.81,0,0,0-.87-3.37,3.83,3.83,0,0,0-2.83-1.19Z"/><path class="cls-2" d="M638.16,612.64a18.43,18.43,0,0,0,2.21-6.71,5.87,5.87,0,0,0-1.1-4.08c-1.85-2.24-5.6-1.88-7.84,0s-3.31,4.72-4.3,7.46c-1.54,4.29-9.15,17.26-2.36,19.71C631,631.25,636.12,616.85,638.16,612.64Z"/><path d="M626.14,630.25a5.08,5.08,0,0,1-1.71-.31,4.81,4.81,0,0,1-2.94-2.72c-1.68-4,1.26-10.48,3.41-15.24.55-1.23,1-2.28,1.29-3,.93-2.58,2.08-5.78,4.6-7.89a7.73,7.73,0,0,1,5.52-1.73,5.38,5.38,0,0,1,3.73,1.89,6.75,6.75,0,0,1,1.33,4.77,19.56,19.56,0,0,1-2.31,7.08c-.29.59-.63,1.38-1,2.3C635.53,621.07,631.52,630.25,626.14,630.25Zm9.53-29a5.8,5.8,0,0,0-3.6,1.3c-1.94,1.62-3,4.14-4,7-.3.82-.79,1.91-1.36,3.17-1.77,3.92-4.73,10.48-3.39,13.64a2.85,2.85,0,0,0,1.78,1.62c4.49,1.61,8.94-8.59,11.08-13.49.42-1,.77-1.76,1.07-2.37h0a17.17,17.17,0,0,0,2.11-6.33,4.82,4.82,0,0,0-.87-3.38,3.45,3.45,0,0,0-2.37-1.17Z"/><rect x="106.88" y="473.92" width="290.94" height="211.59" rx="4"/><rect class="cls-1" x="96.88" y="463.92" width="290.94" height="211.59" rx="4"/><path d="M383.81,676.51H100.88a5,5,0,0,1-5-5V467.92a5,5,0,0,1,5-5H383.81a5,5,0,0,1,5,5V671.51A5,5,0,0,1,383.81,676.51ZM100.88,464.92a3,3,0,0,0-3,3V671.51a3,3,0,0,0,3,3H383.81a3,3,0,0,0,3-3V467.92a3,3,0,0,0-3-3Z"/><rect x="96.06" y="473.34" width="291.22" height="2"/><path d="M103.86,473.8a4.71,4.71,0,1,1,4.71-4.71A4.71,4.71,0,0,1,103.86,473.8Zm0-7.41a2.71,2.71,0,1,0,2.71,2.7A2.7,2.7,0,0,0,103.86,466.39Z"/><path d="M114.28,473.8a4.71,4.71,0,1,1,4.7-4.71A4.71,4.71,0,0,1,114.28,473.8Zm0-7.41a2.71,2.71,0,1,0,2.7,2.7A2.71,2.71,0,0,0,114.28,466.39Z"/><rect x="117.99" y="491.47" width="183.02" height="2"/><rect x="117.99" y="507.76" width="103.02" height="2"/><g class="cls-9"><rect x="131.58" y="527.74" width="2" height="133.71"/></g><g class="cls-9"><rect x="162.27" y="527.74" width="2" height="133.71"/></g><g class="cls-9"><rect x="192.96" y="527.74" width="2" height="133.71"/></g><g class="cls-9"><rect x="223.65" y="527.74" width="2" height="133.71"/></g><g class="cls-9"><rect x="254.33" y="527.74" width="2" height="133.71"/></g><g class="cls-9"><rect x="285.02" y="527.74" width="2" height="133.71"/></g><g class="cls-9"><rect x="315.71" y="527.74" width="2" height="133.71"/></g><g class="cls-9"><rect x="346.4" y="527.74" width="2" height="133.71"/></g><g class="cls-9"><rect x="116.51" y="546.47" width="244.77" height="2"/></g><g class="cls-9"><rect x="116.51" y="570.58" width="244.77" height="2"/></g><g class="cls-9"><rect x="116.51" y="594.69" width="244.77" height="2"/></g><g class="cls-9"><rect x="116.51" y="618.8" width="244.77" height="2"/></g><g class="cls-9"><rect x="116.51" y="642.91" width="244.77" height="2"/></g><path class="cls-7" d="M316,644.91a1,1,0,0,1-.38-.07l-60.7-24.56-60.75.52-61.07,23.85a1,1,0,0,1-1.23-.43,1,1,0,0,1,.25-1.29l91.2-72.14a1,1,0,0,1,1.22,0l30.81,23.65,60.63-48L317.2,548,256,596.49a1,1,0,0,1-1.23,0l-30.8-23.65-85.35,67.5,55-21.48a1,1,0,0,1,.35-.07l61.13-.52a1.8,1.8,0,0,1,.39.08l60,24.26,31.76-72.9,1.84.8L316.9,644.31A1,1,0,0,1,316,644.91Z"/><circle class="cls-1" cx="132.72" cy="643.72" r="3.98"/><path d="M132.72,648.2a4.48,4.48,0,1,1,4.48-4.48A4.49,4.49,0,0,1,132.72,648.2Zm0-8a3.48,3.48,0,1,0,3.48,3.48A3.48,3.48,0,0,0,132.72,640.24Z"/><circle class="cls-1" cx="224.89" cy="571.33" r="3.98"/><path d="M224.89,575.81a4.48,4.48,0,1,1,4.48-4.48A4.49,4.49,0,0,1,224.89,575.81Zm0-8a3.48,3.48,0,1,0,3.48,3.48A3.48,3.48,0,0,0,224.89,567.85Z"/><circle class="cls-1" cx="193.9" cy="619.68" r="3.98"/><path d="M193.9,624.16a4.48,4.48,0,1,1,4.48-4.48A4.49,4.49,0,0,1,193.9,624.16Zm0-8a3.48,3.48,0,1,0,3.48,3.48A3.48,3.48,0,0,0,193.9,616.2Z"/><circle class="cls-1" cx="255.09" cy="619.28" r="3.98"/><path d="M255.09,623.76a4.48,4.48,0,1,1,4.48-4.48A4.49,4.49,0,0,1,255.09,623.76Zm0-8a3.48,3.48,0,1,0,3.48,3.48A3.48,3.48,0,0,0,255.09,615.8Z"/><circle class="cls-1" cx="316.82" cy="643.72" r="3.98"/><path d="M316.82,648.2a4.48,4.48,0,1,1,4.48-4.48A4.49,4.49,0,0,1,316.82,648.2Zm0-8a3.48,3.48,0,1,0,3.48,3.48A3.48,3.48,0,0,0,316.82,640.24Z"/><circle class="cls-1" cx="347.7" cy="571.09" r="3.98"/><path d="M347.7,575.57a4.48,4.48,0,1,1,4.49-4.48A4.49,4.49,0,0,1,347.7,575.57Zm0-8a3.48,3.48,0,1,0,3.49,3.48A3.48,3.48,0,0,0,347.7,567.61Z"/><circle class="cls-1" cx="255.34" cy="595.7" r="3.98"/><path d="M255.34,600.18a4.48,4.48,0,1,1,4.48-4.48A4.49,4.49,0,0,1,255.34,600.18Zm0-8a3.48,3.48,0,1,0,3.48,3.48A3.48,3.48,0,0,0,255.34,592.22Z"/><circle class="cls-1" cx="316.58" cy="547.21" r="3.98"/><path d="M316.58,551.69a4.49,4.49,0,1,1,4.48-4.48A4.49,4.49,0,0,1,316.58,551.69Zm0-8a3.49,3.49,0,1,0,3.48,3.49A3.49,3.49,0,0,0,316.58,543.72Z"/><path class="cls-10" d="M580.93,287.88a1.44,1.44,0,0,1,.38,1.89l-31.44,54.11a34.35,34.35,0,0,1-19.07,15.47c-23.91,7.73-49.49,8.91-70.65,7.79a1.32,1.32,0,0,1-.67-.21c-13.05-8-34.11-17.53-41.62-20.86-.64-.29-2.94-.54-2.78-1.22l2.91-4.7.25-1.09a1.45,1.45,0,0,0-.59-1.51L371.9,305.8l-.17-.12a1.45,1.45,0,0,1-.47-1.86c23.34-45.29,84.51-50.82,105-51.62a1.45,1.45,0,0,1,1.49,1.68c-1.24,7.95-4.9,40.4,18.29,40.4,23,0,20-30.3,18.84-38.09a1.45,1.45,0,0,1,1.59-1.66C538.59,256.93,574.42,283,580.93,287.88Z"/><path d="M473.79,368.51q-6.71,0-13.69-.37a2.36,2.36,0,0,1-1.15-.36c-12.8-7.83-33.29-17.15-41.5-20.8a5.72,5.72,0,0,0-.73-.2c-1.17-.28-2.94-.72-2.62-2.15l0-.17,2.91-4.7.21-.92a.45.45,0,0,0-.18-.47L371.16,306.5a2.46,2.46,0,0,1-.79-3.14c22.81-44.25,81.6-51.22,105.81-52.16a2.42,2.42,0,0,1,1.93.82,2.45,2.45,0,0,1,.59,2c-.88,5.61-3.12,24.65,4.87,34,3,3.5,7.17,5.27,12.43,5.27,5.45,0,9.77-1.8,12.84-5.36,7.68-8.9,5.77-26.42,5-31.58a2.47,2.47,0,0,1,.66-2.07,2.39,2.39,0,0,1,2-.73c22.35,2.42,58.07,28.36,65,33.54h0a2.46,2.46,0,0,1,.65,3.2l-31.44,54.1a35.31,35.31,0,0,1-19.63,15.92C514.24,365.76,495,368.51,473.79,368.51Zm-57.4-23.88.81.21a6.59,6.59,0,0,1,1.06.31c8.25,3.66,28.84,13,41.74,20.93a.37.37,0,0,0,.21.06c26.44,1.4,50.09-1.21,70.28-7.74a33.31,33.31,0,0,0,18.52-15l31.44-54.1a.44.44,0,0,0-.12-.59c-6.86-5.12-42.18-30.79-64-33.15a.41.41,0,0,0-.37.13.43.43,0,0,0-.12.38c.79,5.38,2.76,23.64-5.48,33.19-3.46,4-8.29,6-14.35,6-5.87,0-10.56-2-13.95-6-8.54-10-6.24-29.77-5.33-35.59a.43.43,0,0,0-.11-.38.48.48,0,0,0-.35-.15c-23.87.93-81.79,7.77-104.11,51.07a.46.46,0,0,0,.15.59l45.92,31.87a2.44,2.44,0,0,1,1,2.55l-.28,1.25Z"/><rect x="408.86" y="331.63" width="30.25" height="2" transform="translate(-94.53 479.4) rotate(-53.92)"/><path d="M494.69,229.38h13.64a0,0,0,0,1,0,0V231a6.36,6.36,0,0,1-6.36,6.36H501a6.36,6.36,0,0,1-6.36-6.36v-1.65A0,0,0,0,1,494.69,229.38Z" transform="translate(163.41 -204.41) rotate(27.37)"/><line class="cls-5" x1="451.3" y1="210.24" x2="458.23" y2="218.03"/><rect x="453.76" y="208.92" width="2" height="10.43" transform="translate(-27.39 356.22) rotate(-41.63)"/><line class="cls-5" x1="455.41" y1="214.57" x2="457.58" y2="208.94"/><rect x="453.48" y="210.75" width="6.03" height="2" transform="translate(94.85 561.67) rotate(-68.94)"/><path class="cls-10" d="M528.35,317.81c0,12.66,6.5,26.62,18.83,30.52"/><path d="M546.88,349.28C533.46,345,527.35,330,527.35,317.81h2c0,16.38,9.4,26.81,18.13,29.56Z"/><circle cx="480.95" cy="165.22" r="22.08"/><rect class="cls-8" x="469.43" y="179.12" width="33.63" height="3.25" rx="1.51" transform="translate(-31.86 154.83) rotate(-17.53)"/><path class="cls-6" d="M493.76,643.92a5.36,5.36,0,0,0-10.64-.94,23,23,0,0,1-45.52-4.42h-1.28A73.92,73.92,0,0,0,363.65,699H493.76Z"/><path d="M494.76,700H362.45l.22-1.18a74.9,74.9,0,0,1,73.65-61.25h2.28v1a22,22,0,0,0,43.54,4.23,6.36,6.36,0,0,1,12.62,1.13Zm-129.9-2h127.9V643.92a4.37,4.37,0,0,0-4.36-4.36,4.42,4.42,0,0,0-4.3,3.61,24,24,0,0,1-40.48,12.34,23.77,23.77,0,0,1-7-16h-.3A72.92,72.92,0,0,0,364.86,698Z"/><path class="cls-8" d="M363.65,699a74.64,74.64,0,0,0-1.25,13.13.36.36,0,0,0,.36.36H493.4a.36.36,0,0,0,.36-.36V699Z"/><path d="M493.4,713.48H362.76a1.37,1.37,0,0,1-1.36-1.37,75.4,75.4,0,0,1,1.27-13.3l.15-.82H494.76v14.13A1.36,1.36,0,0,1,493.4,713.48Zm-130-2H492.76V700H364.49A73.78,73.78,0,0,0,363.41,711.48Z"/><path class="cls-2" d="M399.47,648.4a18.25,18.25,0,0,1-4.34-5.57,5.76,5.76,0,0,1-.34-4.21c1-2.73,4.64-3.66,7.37-2.66s4.71,3.32,6.56,5.57c2.9,3.52,14.44,13.16,8.87,17.76C412.47,663.51,402.81,651.68,399.47,648.4Z"/><path d="M415,661.21c-4.82,0-10.71-6.24-14.53-10.29-.68-.72-1.27-1.35-1.74-1.81a19.48,19.48,0,0,1-4.56-5.88,6.8,6.8,0,0,1-.36-5,5.38,5.38,0,0,1,2.87-3,7.7,7.7,0,0,1,5.78-.23c3.08,1.13,5.25,3.76,7,5.87.51.61,1.31,1.45,2.25,2.42,3.62,3.75,8.59,8.9,8.34,13.2a5.09,5.09,0,0,1-5,4.7Zm-15.15-24.64a5.49,5.49,0,0,0-2.32.49,3.43,3.43,0,0,0-1.84,1.9,4.82,4.82,0,0,0,.31,3.48,17.39,17.39,0,0,0,4.13,5.25h0c.48.47,1.09,1.11,1.8,1.86,3.67,3.9,11.32,12,15,9a2.88,2.88,0,0,0,1.13-2.12c.19-3.43-4.81-8.61-7.79-11.7-1-1-1.8-1.86-2.35-2.54-1.59-1.92-3.56-4.32-6.14-5.26A5.62,5.62,0,0,0,399.89,636.57Z"/><path class="cls-2" d="M409.46,640.41a18.44,18.44,0,0,1-4.35-5.57,5.81,5.81,0,0,1-.33-4.21c1-2.73,4.64-3.66,7.37-2.66s4.71,3.32,6.56,5.57c2.9,3.52,14.44,13.16,8.87,17.76C422.46,655.52,412.8,643.68,409.46,640.41Z"/><path d="M425,653.22c-4.82,0-10.71-6.24-14.52-10.29-.69-.72-1.28-1.35-1.75-1.81h0a19.48,19.48,0,0,1-4.56-5.88,6.81,6.81,0,0,1-.36-5,5.32,5.32,0,0,1,2.87-3,7.7,7.7,0,0,1,5.78-.23c3.08,1.13,5.25,3.76,7,5.87.51.61,1.31,1.45,2.25,2.41,3.62,3.76,8.59,8.91,8.34,13.21a4.83,4.83,0,0,1-1.85,3.55A4.9,4.9,0,0,1,425,653.22Zm-15.15-24.64a5.49,5.49,0,0,0-2.32.49,3.43,3.43,0,0,0-1.84,1.9,4.82,4.82,0,0,0,.31,3.48,18,18,0,0,0,4.13,5.24h0c.48.48,1.09,1.12,1.8,1.87,3.67,3.89,11.31,12,15,9a2.86,2.86,0,0,0,1.13-2.12c.19-3.42-4.81-8.6-7.79-11.7-1-1-1.8-1.86-2.35-2.53-1.59-1.93-3.56-4.32-6.14-5.26A5.62,5.62,0,0,0,409.88,628.58Z"/><rect x="888.04" y="368.41" width="2" height="163.1"/><polygon points="880.65 377.78 879.22 376.38 889.17 366.21 899.33 376.16 897.93 377.59 889.2 369.04 880.65 377.78"/></g></g></svg>