<?xml version="1.0" encoding="utf-8"?>
<svg id="f885adbf-893a-4cbc-9f2f-51541a368feb" data-name="Layer 1" width="690.76" height="395.07" viewBox="0 0 1090.76 795.07" xmlns="http://www.w3.org/2000/svg">
  <title>revenue</title>
  <path d="M1074.83,84.17l.28-.07c2.11,8-21.35,40-41.4,65.53l-.24-.18C1061.76,113.49,1076.45,90.31,1074.83,84.17Z" transform="translate(-54.62 -52.46)" fill="#444053"/>
  <path d="M1033.89,148.92l.12.33c-16,20.36-36.17,44.66-52.29,62.66-1.53,1.72-3.06,3.52-4.53,5.36l-.46-.37c1.48-1.85,3-3.66,4.55-5.38C997.4,193.53,1017.88,169.28,1033.89,148.92Z" transform="translate(-54.62 -52.46)" fill="#444053"/>
  <path d="M977.12,216.41l.32.55c-29.34,36.63-31.28,93.51-31.35,94l-6.19-7.14C940,303.32,947.57,253.3,977.12,216.41Z" transform="translate(-54.62 -52.46)" fill="#444053"/>
  <path d="M1111.35,274s-34.6-18-61.56-11.53-87.67-22.81-87.67-22.81-25.77-10.47-31-22.41c0,0-17.69-18.69-18.7-28.38s-18.22-34-29.45-34.93" transform="translate(-54.62 -52.46)" fill="none" stroke="#444053" stroke-miterlimit="10"/>
  <path d="M1106.34,291.32s-17.42-11.74-15.4-25.42" transform="translate(-54.62 -52.46)" fill="none" stroke="#444053" stroke-miterlimit="10"/>
  <path d="M1079.61,306.48s-24.91-9.05-27.42-44.52" transform="translate(-54.62 -52.46)" fill="none" stroke="#444053" stroke-miterlimit="10"/>
  <path d="M1039.4,315.66s-23.81-19.76-15.91-54.28" transform="translate(-54.62 -52.46)" fill="none" stroke="#444053" stroke-miterlimit="10"/>
  <path d="M991.09,306s-15.87-33.25-1.75-54.89" transform="translate(-54.62 -52.46)" fill="none" stroke="#444053" stroke-miterlimit="10"/>
  <path d="M1090,219.37s-24.11,7.65-24.68,41.76" transform="translate(-54.62 -52.46)" fill="none" stroke="#444053" stroke-miterlimit="10"/>
  <path d="M1056.38,211.5s-21.94,27.09-20.34,51.71" transform="translate(-54.62 -52.46)" fill="none" stroke="#444053" stroke-miterlimit="10"/>
  <path d="M1018,222.12s-21.8,20.84-19,32.43" transform="translate(-54.62 -52.46)" fill="none" stroke="#444053" stroke-miterlimit="10"/>
  <path d="M1004.8,214.76s-20.44,3.67-23.3-3" transform="translate(-54.62 -52.46)" fill="none" stroke="#444053" stroke-miterlimit="10"/>
  <path d="M978.24,190.08s10.33,13.68,13,10.62" transform="translate(-54.62 -52.46)" fill="none" stroke="#444053" stroke-miterlimit="10"/>
  <path d="M1080.62,181.43s-51.53,3.74-63.19-11.79" transform="translate(-54.62 -52.46)" fill="none" stroke="#444053" stroke-miterlimit="10"/>
  <path d="M967.4,121.16s24.18,51.9,41.73,58.51" transform="translate(-54.62 -52.46)" fill="none" stroke="#444053" stroke-miterlimit="10"/>
  <path d="M992.76,96.44s14.85,47.74,33.25,62.64" transform="translate(-54.62 -52.46)" fill="none" stroke="#444053" stroke-miterlimit="10"/>
  <path d="M1102.3,142s-39.18,16.82-62.71-.19" transform="translate(-54.62 -52.46)" fill="none" stroke="#444053" stroke-miterlimit="10" stroke-width="0.75"/>
  <path d="M1027.67,86.26s8.95,35.1,21,43.57" transform="translate(-54.62 -52.46)" fill="none" stroke="#444053" stroke-miterlimit="10" stroke-width="0.75"/>
  <path d="M1096.39,102.73s-22,8.33-30.25,2" transform="translate(-54.62 -52.46)" fill="none" stroke="#444053" stroke-miterlimit="10" stroke-width="0.75"/>
  <path d="M959.38,201.55s-.06,30.59-8.34,32.76" transform="translate(-54.62 -52.46)" fill="none" stroke="#444053" stroke-miterlimit="10"/>
  <path d="M891.3,241.18S924.37,244,939.62,227" transform="translate(-54.62 -52.46)" fill="none" stroke="#444053" stroke-miterlimit="10"/>
  <path d="M950.84,165.41s-8,31-30.08,39.38" transform="translate(-54.62 -52.46)" fill="none" stroke="#444053" stroke-miterlimit="10"/>
  <path d="M871.46,208.5s23.41,8.14,43.54-12.59" transform="translate(-54.62 -52.46)" fill="none" stroke="#444053" stroke-miterlimit="10"/>
  <path d="M924.81,138.74s-2.21,26.35-16.53,38.68" transform="translate(-54.62 -52.46)" fill="none" stroke="#444053" stroke-miterlimit="10"/>
  <path d="M872.35,168.35s19.43.13,24-6.2" transform="translate(-54.62 -52.46)" fill="none" stroke="#444053" stroke-miterlimit="10"/>
  <path d="M242.53,795.07s13.31-8.78,26.5-2.53c0,0-4.06,7.82-20.76,7.08Z" transform="translate(-54.62 -52.46)" fill="#6c63ff"/>
  <path d="M240.9,795.54S236.85,811,247,821.45c0,0,6.11-6.36.05-21.93Z" transform="translate(-54.62 -52.46)" fill="#6c63ff"/>
  <path d="M224.3,780.74s1-13.12,30.6-8.77c0,0,.14,8.46-10.26,12.47S229.49,785.07,224.3,780.74Z" transform="translate(-54.62 -52.46)" fill="#6c63ff"/>
  <path d="M222.48,780.65s-12.52,4-1.36,31.79c0,0,8.26-1.84,9.72-12.89S227.91,784.67,222.48,780.65Z" transform="translate(-54.62 -52.46)" fill="#6c63ff"/>
  <path d="M205.71,762s-1.69-21.58,28.57-19.36c0,0,2.15,19.53-23.22,24.55Z" transform="translate(-54.62 -52.46)" fill="#6c63ff"/>
  <path d="M185.72,737.68s4.14-24.45,34.39-17.16c0,0,.12,21.14-29.46,23Z" transform="translate(-54.62 -52.46)" fill="#6c63ff"/>
  <path d="M171.1,712.5s7-23.88,36.92-16.69c0,0-7.13,21.42-34.93,21.09Z" transform="translate(-54.62 -52.46)" fill="#6c63ff"/>
  <path d="M157.22,687.9s6.79-24.72,35.72-17.3c0,0-9.66,23.49-33.82,21.51Z" transform="translate(-54.62 -52.46)" fill="#6c63ff"/>
  <path d="M148.27,664.53s5.22-30.23,32.2-23.54c0,0-7.84,27.5-30.21,27.94Z" transform="translate(-54.62 -52.46)" fill="#6c63ff"/>
  <path d="M139.88,636.3s6.27-30.47,33.54-21.61c0,0-10.71,28.8-31.64,25.82Z" transform="translate(-54.62 -52.46)" fill="#6c63ff"/>
  <path d="M134.69,610s9.94-30.48,31.05-29.65c0,0-10.17,32.19-29.29,35.76Z" transform="translate(-54.62 -52.46)" fill="#6c63ff"/>
  <path d="M131.39,584.39s10.82-36.69,28-33.85c0,0-7.49,28-27.39,39.57Z" transform="translate(-54.62 -52.46)" fill="#6c63ff"/>
  <path d="M129.51,553.77S139.66,523.2,156.62,522c0,0-6.91,30.08-26.73,39.73Z" transform="translate(-54.62 -52.46)" fill="#6c63ff"/>
  <path d="M127.46,525.26s12.66-30.61,23.86-31.3c0,0-5.49,30.14-22.74,36.32Z" transform="translate(-54.62 -52.46)" fill="#6c63ff"/>
  <path d="M126.05,498.71s7.78-33.24,19-36c0,0-1.53,27.18-17.85,38.48Z" transform="translate(-54.62 -52.46)" fill="#6c63ff"/>
  <path d="M121.85,464s8.18-26.49,17.24-30.53c0,0-1.79,31.23-15.14,37Z" transform="translate(-54.62 -52.46)" fill="#6c63ff"/>
  <path d="M118.34,441.14l-1.65-46.71s16.92,35.26,2.9,54.95Z" transform="translate(-54.62 -52.46)" fill="#6c63ff"/>
  <path d="M105.26,394.72s-12.2-34.11-15.13-36c0,0,23.93,22.13,21.59,50.6Z" transform="translate(-54.62 -52.46)" fill="#6c63ff"/>
  <path d="M204.89,761.89s-21.46-2.81-20.82,27.52c0,0,19.4,3.16,25.73-21.92Z" transform="translate(-54.62 -52.46)" fill="#6c63ff"/>
  <path d="M184.7,736.87s-24.8-.09-22.78,31c0,0,20.81,3.72,27.68-25.1Z" transform="translate(-54.62 -52.46)" fill="#6c63ff"/>
  <path d="M170.86,714.51S148.35,704,133.94,731.2c0,0,20.8,8.79,38.91-12.29Z" transform="translate(-54.62 -52.46)" fill="#6c63ff"/>
  <path d="M156.72,688.13s-23.05-11.24-36.59,15.39c0,0,24,8.26,38.49-11.18Z" transform="translate(-54.62 -52.46)" fill="#6c63ff"/>
  <path d="M148.56,665.19s-22.18-21.2-39.89.24c0,0,22.67,17.44,40.91,4.48Z" transform="translate(-54.62 -52.46)" fill="#6c63ff"/>
  <path d="M141.14,635.58s-22.32-21.68-39.89,1c0,0,25.06,17.78,40.68,3.55Z" transform="translate(-54.62 -52.46)" fill="#6c63ff"/>
  <path d="M137,609.16s-17.19-27-37.44-21c0,0,17.84,28.66,37.25,27.38Z" transform="translate(-54.62 -52.46)" fill="#6c63ff"/>
  <path d="M131.9,584.22s-17.35-34.09-33.72-28.17c0,0,12.49,26.2,34.16,33.9Z" transform="translate(-54.62 -52.46)" fill="#6c63ff"/>
  <path d="M130.7,552s-17.81-26.84-34.5-23.56c0,0,14.56,27.21,36.23,31.32Z" transform="translate(-54.62 -52.46)" fill="#6c63ff"/>
  <path d="M129.34,524.66s-13.8-30.11-25-30.37c0,0,6.63,29.9,24.1,35.43Z" transform="translate(-54.62 -52.46)" fill="#6c63ff"/>
  <path d="M126.61,498.05s-15.35-30.49-26.88-30.55c0,0,7.86,26.07,26.36,33.24Z" transform="translate(-54.62 -52.46)" fill="#6c63ff"/>
  <path d="M124.3,465.84s-11.48-25.24-21-28.1c0,0,5.74,30.76,19.72,34.79Z" transform="translate(-54.62 -52.46)" fill="#6c63ff"/>
  <path d="M117,440.26,91.33,401.19s6.57,38.54,29.39,46.52Z" transform="translate(-54.62 -52.46)" fill="#6c63ff"/>
  <path d="M99.37,397.87S69.56,377.29,68.48,374c0,0,15.21,28.83,43.32,33.91Z" transform="translate(-54.62 -52.46)" fill="#6c63ff"/>
  <path d="M97.59,388.61s-34.23-32.9-43-32.87c0,0,28.23,1.29,43.79,31.12Z" transform="translate(-54.62 -52.46)" fill="#6c63ff"/>
  <path d="M124,470.72l-1.25.16c-6.43-50.35-15.81-80.1-26.41-83.78l.42-1.19C108,389.81,117.38,419.14,124,470.72Z" transform="translate(-54.62 -52.46)" fill="#444053"/>
  <path d="M133.42,591.1l-1.88.16c-.4-4.7-.7-9.51-.91-14.3-1.79-41.68-4.58-79.94-8.24-108.63l1.09-1.34c3.67,28.73,7.24,68.16,9,109.88C132.73,581.64,133,586.42,133.42,591.1Z" transform="translate(-54.62 -52.46)" fill="#444053"/>
  <path d="M277.68,819c-.33-.15-33.49-14.95-67.92-50.28a273.54,273.54,0,0,1-49.65-70.34C144.2,666,134.5,626.19,131.25,587.5l2,.92c7.31,86.84,46.84,146.21,78.28,178.5,34.09,35,66.88,49.67,67.21,49.81Z" transform="translate(-54.62 -52.46)" fill="#444053"/>
  <path d="M1055.26,185.73V790.57c0,18-17.35,32.61-38.78,32.61H195.85c-21.42,0-38.77-14.63-38.77-32.61V185.73c0-18,17.35-36.39,38.77-36.39l820.59,2C1037.86,151.33,1055.26,167.71,1055.26,185.73Z" transform="translate(-54.62 -52.46)" fill="#e8eaf2"/>
  <path d="M1055.26,185.91v28H157.08v-28a36.57,36.57,0,0,1,36.57-36.57h825A36.58,36.58,0,0,1,1055.26,185.91Z" transform="translate(-54.62 -52.46)" fill="#65617d"/>
  <circle cx="145.97" cy="129.16" r="12.92" fill="#fa5959" opacity="0.8"/>
  <circle cx="183.58" cy="129.16" r="12.92" fill="#fed253" opacity="0.8"/>
  <circle cx="221.18" cy="129.16" r="12.92" fill="#8ccf4d" opacity="0.8"/>
  <path d="M883.59,834.06a6.55,6.55,0,0,0,5.36,4,56.39,56.39,0,0,1-3.8-5.55l.07-9.8a17.28,17.28,0,0,1,5.5-14.56h0s-7.38.5-7.58,12.33S883.59,834.06,883.59,834.06Z" transform="translate(-54.62 -52.46)" opacity="0.05"/>
  <circle cx="802.48" cy="685.76" r="0.89" fill="#e6e8ec"/>
  <circle cx="854.79" cy="712.56" r="1.47" fill="#e6e8ec"/>
  <path d="M341.27,412.72H258.54a2.76,2.76,0,1,0,0,5.51h82.73a2.76,2.76,0,1,0,0-5.51Zm0,9.45H258.54a2.76,2.76,0,0,0,0,5.52h82.73a2.76,2.76,0,0,0,0-5.52Zm-4.15-63.78H262.7a6.93,6.93,0,0,0-6.92,6.91v35a6.93,6.93,0,0,0,6.92,6.91h74.42a6.93,6.93,0,0,0,6.91-6.91v-35A6.93,6.93,0,0,0,337.12,358.39Zm-65.19,42.55h-7.09a2.76,2.76,0,0,1,0-5.52h7.09a2.76,2.76,0,0,1,0,5.52Zm0-30.73h-7.09a2.76,2.76,0,0,1,0-5.52h7.09a2.76,2.76,0,0,1,0,5.52Zm28,28.36a15.76,15.76,0,1,1,15.76-15.76A15.78,15.78,0,0,1,299.91,398.57ZM335,400.94h-7.09a2.76,2.76,0,0,1,0-5.52H335a2.76,2.76,0,0,1,0,5.52Zm0-30.73h-7.09a2.76,2.76,0,0,1,0-5.52H335a2.76,2.76,0,0,1,0,5.52Z" transform="translate(-54.62 -52.46)" fill="#fff"/>
  <circle cx="245.29" cy="330.73" r="10.44" fill="#fff"/>
  <rect x="403.44" y="236.28" width="375.69" height="208.58" fill="#6c63ff" opacity="0.2"/>
  <rect x="403.44" y="491.52" width="375.69" height="208.58" fill="#6c63ff" opacity="0.2"/>
  <rect x="477.32" y="381.52" width="11.37" height="38.1" fill="#fff"/>
  <rect x="498.97" y="334.35" width="11.37" height="85.27" fill="#fff"/>
  <rect x="520.63" y="291.85" width="11.37" height="127.77" fill="#dfe3ef"/>
  <rect x="542.29" y="261.53" width="11.37" height="158.09" fill="#fff"/>
  <rect x="520.63" y="261.53" width="11.37" height="158.09" fill="#6c63ff"/>
  <rect x="563.94" y="332.72" width="11.37" height="86.9" fill="#6c63ff"/>
  <rect x="585.6" y="310.26" width="11.37" height="109.36" fill="#6c63ff" opacity="0.2"/>
  <rect x="607.25" y="276.15" width="11.37" height="143.47" fill="#6c63ff"/>
  <rect x="628.91" y="355.73" width="11.37" height="63.89" fill="#6c63ff" opacity="0.2"/>
  <rect x="650.57" y="326.23" width="11.37" height="93.39" fill="#6c63ff"/>
  <rect x="672.22" y="291.85" width="11.37" height="127.77" fill="#6c63ff" opacity="0.2"/>
  <rect x="693.88" y="291.85" width="11.37" height="127.77" fill="#6c63ff"/>
  <path d="M344,623.05a6.32,6.32,0,0,0-6.3-6.3H262.09a6.33,6.33,0,0,0-6.31,6.3v9.46H344Zm-88.25,50.43a6.33,6.33,0,0,0,6.31,6.31h75.64a6.32,6.32,0,0,0,6.3-6.31V642H255.78Zm28-9.45h32.31a2.76,2.76,0,1,1,0,5.51H283.75a2.76,2.76,0,0,1,0-5.51Zm-14.18,0h2.36a2.76,2.76,0,1,1,0,5.51h-2.36a2.76,2.76,0,1,1,0-5.51Z" transform="translate(-54.62 -52.46)" fill="#fff"/>
  <rect x="477.32" y="636.75" width="11.37" height="38.1" fill="#fff"/>
  <rect x="498.97" y="589.58" width="11.37" height="85.27" fill="#fff"/>
  <rect x="520.63" y="547.08" width="11.37" height="127.77" fill="#dfe3ef"/>
  <rect x="542.29" y="516.76" width="11.37" height="158.09" fill="#fff"/>
  <rect x="520.63" y="516.76" width="11.37" height="158.09" fill="#6c63ff"/>
  <rect x="563.94" y="587.95" width="11.37" height="86.9" fill="#6c63ff"/>
  <rect x="585.6" y="565.49" width="11.37" height="109.36" fill="#fff"/>
  <rect x="607.25" y="531.38" width="11.37" height="143.47" fill="#fff"/>
  <rect x="628.91" y="610.96" width="11.37" height="63.89" fill="#6c63ff" opacity="0.2"/>
  <rect x="650.57" y="581.46" width="11.37" height="93.39" fill="#6c63ff" opacity="0.2"/>
  <rect x="672.22" y="547.08" width="11.37" height="127.77" fill="#6c63ff" opacity="0.2"/>
  <rect x="693.88" y="547.08" width="11.37" height="127.77" fill="#6c63ff" opacity="0.2"/>
</svg>
