<svg xmlns="http://www.w3.org/2000/svg" viewBox="0 0 1068.96 737.25"><defs><style>.cls-1,.cls-5,.cls-9{fill-rule:evenodd;}.cls-2{fill:#fff;}.cls-3{fill:#f4f4f4;}.cls-4{fill:#f0027f;}.cls-5,.cls-8{fill:#386cb0;}.cls-6{fill:#231f20;}.cls-7,.cls-9{fill:#cbcbcb;}</style></defs><g id="Layer_2" data-name="Layer 2"><g id="Layer_2-2" data-name="Layer 2"><polygon class="cls-1" points="590.13 14.22 590.13 153.08 554.86 153.08 543.97 234.39 510.07 153.08 384.41 153.08 384.41 14.22 590.13 14.22"/><polygon points="759.27 631.4 759.27 730.64 609.83 730.64 609.83 631.4 622.58 631.4 622.58 597.93 656.06 631.4 759.27 631.4"/><polygon points="466.7 577.13 345.48 577.13 345.48 308.23 452.74 308.23 466.7 323.41 466.7 577.13"/><polyline points="452.74 308.23 452.74 323.41 466.7 323.41"/><line x1="363.85" y1="349.37" x2="446.13" y2="349.37"/><line x1="363.85" y1="367" x2="446.13" y2="367"/><line x1="363.85" y1="384.64" x2="446.13" y2="384.64"/><line x1="363.85" y1="402.27" x2="446.13" y2="402.27"/><line x1="363.85" y1="419.9" x2="446.13" y2="419.9"/><line x1="363.85" y1="437.53" x2="446.13" y2="437.53"/><line x1="363.85" y1="455.17" x2="446.13" y2="455.17"/><line x1="363.85" y1="472.8" x2="446.13" y2="472.8"/><line x1="363.85" y1="490.43" x2="446.13" y2="490.43"/><line x1="363.85" y1="508.06" x2="446.13" y2="508.06"/><line x1="363.85" y1="525.7" x2="446.13" y2="525.7"/><line x1="363.85" y1="543.33" x2="406.13" y2="543.33"/><polygon class="cls-2" points="455.68 567.21 334.46 567.21 334.46 298.31 441.72 298.31 455.68 313.49 455.68 567.21"/><path d="M456.68,568.21H333.46V297.31h108.7l14.52,15.79Zm-121.22-2H454.68V313.88l-13.4-14.57H335.46Z"/><polyline class="cls-2" points="441.72 298.31 441.72 313.49 455.68 313.49"/><polygon points="455.68 314.49 440.72 314.49 440.72 298.31 442.72 298.31 442.72 312.49 455.68 312.49 455.68 314.49"/><rect x="352.83" y="338.45" width="82.29" height="2"/><rect x="352.83" y="356.08" width="82.29" height="2"/><rect x="352.83" y="373.72" width="82.29" height="2"/><rect x="352.83" y="391.35" width="82.29" height="2"/><rect x="352.83" y="408.98" width="82.29" height="2"/><rect x="352.83" y="426.61" width="82.29" height="2"/><rect x="352.83" y="444.25" width="82.29" height="2"/><rect x="352.83" y="461.88" width="82.29" height="2"/><rect x="352.83" y="479.51" width="82.29" height="2"/><rect x="352.83" y="497.15" width="82.29" height="2"/><rect x="352.83" y="514.78" width="82.29" height="2"/><rect x="352.83" y="532.41" width="42.29" height="2"/><rect class="cls-3" x="36.06" y="201.26" width="55.81" height="239.98"/><path d="M92.87,442.24H35.06v-242H92.87Zm-55.81-2H90.87v-238H37.06Z"/><rect class="cls-3" x="105.82" y="234.95" width="55.81" height="206.3"/><path d="M162.63,442.24H104.82V234h57.81Zm-55.81-2h53.81V236H106.82Z"/><rect class="cls-4" x="175.59" y="285.17" width="55.81" height="156.07"/><path d="M232.4,442.24H174.59V284.17H232.4Zm-55.81-2H230.4V286.17H176.59Z"/><rect class="cls-3" x="245.35" y="145" width="55.81" height="296.24"/><path d="M302.16,442.24H244.35V144h57.81Zm-55.81-2h53.81V146H246.35Z"/><polygon points="317.7 461.61 15.33 461.61 15.33 165.75 17.33 165.75 17.33 459.61 317.7 459.61 317.7 461.61"/><polygon class="cls-5" points="578.38 1 578.38 139.86 543.11 139.86 543.11 228.76 498.32 139.86 372.66 139.86 372.66 1 578.38 1"/><path d="M544.11,233,497.7,140.86h-126V0H579.38V140.86H544.11ZM373.66,138.86H498.93l.28.55,42.9,85.14V138.86h35.27V2H373.66Z"/><path class="cls-6" d="M677.82,591.68H523.29v-93l51.87-15.87.32.12,50.2,18.42,52.14-58.46Zm-152.53-2H675.82V448.18l-49.55,55.56L575.1,485,525.29,500.2Z"/><polygon class="cls-7" points="676.82 590.68 524.29 590.68 524.29 499.46 575.13 483.91 625.97 502.57 676.82 445.55 676.82 590.68"/><path class="cls-6" d="M677.82,591.68H523.29v-93l51.87-15.87.32.12,50.2,18.42,52.14-58.46Zm-152.53-2H675.82V448.18l-49.55,55.56L575.1,485,525.29,500.2Z"/><path class="cls-6" d="M677.82,591.68H523.29V514.36l51.84-23.26,50.64,22.72,52.05-49.88Zm-152.53-2H675.82v-121l-49.64,47.56-.61-.27L575.13,493.3l-49.84,22.35Z"/><polygon class="cls-3" points="676.82 590.68 524.29 590.68 524.29 515.01 575.13 492.2 625.97 515.01 676.82 466.29 676.82 590.68"/><path class="cls-6" d="M677.82,591.68H523.29V514.36l51.84-23.26,50.64,22.72,52.05-49.88Zm-152.53-2H675.82v-121l-49.64,47.56-.61-.27L575.13,493.3l-49.84,22.35Z"/><path class="cls-6" d="M677.82,591.68H523.29V556L575,511.7l50.82,31.08,52-47.67Zm-152.53-2H675.82v-90L626.1,545.28l-50.87-31.11-49.94,42.76Z"/><polygon class="cls-8" points="676.82 590.68 524.29 590.68 524.29 556.47 575.13 512.93 625.97 544.03 676.82 497.38 676.82 590.68"/><path class="cls-6" d="M677.82,591.68H523.29V556L575,511.7l50.82,31.08,52-47.67Zm-152.53-2H675.82v-90L626.1,545.28l-50.87-31.11-49.94,42.76Z"/><path class="cls-6" d="M677.82,591.68H523.29v-15L575,542.94l50.78,15.53L677.82,516Zm-152.53-2H675.82V520.22l-49.63,40.47-50.9-15.57-50,32.62Z"/><polygon class="cls-7" points="676.82 590.68 524.29 590.68 524.29 577.2 575.13 544.03 625.97 559.58 676.82 518.12 676.82 590.68"/><path class="cls-6" d="M677.82,591.68H523.29v-15L575,542.94l50.78,15.53L677.82,516Zm-152.53-2H675.82V520.22l-49.63,40.47-50.9-15.57-50,32.62Z"/><path class="cls-6" d="M677.82,591.68H523.29V579.41L625.87,569l52-10.6Zm-152.53-2H675.82V560.8l-49.65,10.12L525.29,581.21Z"/><polygon class="cls-4" points="676.82 590.68 524.29 590.68 524.29 580.31 575.13 575.13 625.97 569.95 676.82 559.58 676.82 590.68"/><path class="cls-6" d="M677.82,591.68H523.29V579.41L625.87,569l52-10.6Zm-152.53-2H675.82V560.8l-49.65,10.12L525.29,581.21Z"/><polygon class="cls-6" points="698.04 605.8 510.35 605.8 510.35 436.89 512.35 436.89 512.35 603.8 698.04 603.8 698.04 605.8"/><polygon class="cls-2" points="750.9 620.64 750.9 719.88 601.46 719.88 601.46 620.64 614.21 620.64 614.21 587.17 647.69 620.64 750.9 620.64"/><path class="cls-6" d="M751.72,720.69H600.64V619.83h12.75V585.2L648,619.83H751.72Zm-149.45-1.63H750.09v-97.6H647.35L615,589.13v32.33H602.27Z"/><polygon class="cls-4" points="676.18 637.54 638.52 702.78 713.85 702.78 676.18 637.54"/><path class="cls-6" d="M715.25,703.59H637.11l39.07-67.68ZM639.93,702h72.51l-36.26-62.79Z"/><circle class="cls-2" cx="676.18" cy="692.55" r="2.76"/><path class="cls-6" d="M676.18,696.12a3.57,3.57,0,1,1,3.57-3.57A3.57,3.57,0,0,1,676.18,696.12Zm0-5.51a1.94,1.94,0,1,0,1.94,1.94A1.94,1.94,0,0,0,676.18,690.61Z"/><rect class="cls-2" x="673.39" y="653.15" width="5.58" height="31.88"/><path class="cls-6" d="M679.78,685.84h-7.2V652.33h7.2Zm-5.58-1.62h4V654h-4Z"/><rect x="384.33" y="21.98" width="155.39" height="2"/><rect x="384.33" y="39.62" width="155.39" height="2"/><rect x="394.33" y="60.25" width="155.39" height="2"/><rect x="394.33" y="77.88" width="155.39" height="2"/><rect x="394.33" y="95.51" width="75.39" height="2"/><path d="M560.28,271.49l-62.64-26,.38-.93c16.15-39,46.37-64.77,87.4-74.61l1-.24,15.84,66-1.1.26a58.89,58.89,0,0,0-40.47,34.52Zm-60-27,59,24.43a60.84,60.84,0,0,1,40.61-34.56l-14.91-62.15C545.35,182,516.11,206.91,500.26,244.45Z"/><path class="cls-8" d="M585.65,171,601,235.05l-.12,0a59.52,59.52,0,0,0-41.16,35.1L499,245C514.88,206.54,545.19,180.67,585.65,171Z"/><path d="M560.28,271.49l-62.64-26,.38-.93c16.15-39,46.37-64.77,87.4-74.61l1-.24,15.84,66-1.1.26a58.89,58.89,0,0,0-40.47,34.52Zm-60-27,59,24.43a60.84,60.84,0,0,1,40.61-34.56l-14.91-62.15C545.35,182,516.11,206.91,500.26,244.45Z"/><path d="M556.24,289.43l-67.55-5.32.08-1a119.6,119.6,0,0,1,9.25-38.5l.38-.93,62.65,26-.39.92a58.17,58.17,0,0,0-4.34,17.87Zm-65.4-7.16,63.58,5a59.85,59.85,0,0,1,4-16.56L499.49,246.3A117,117,0,0,0,490.84,282.27Z"/><path d="M559.74,270.18a59.12,59.12,0,0,0-4.41,18.18l-65.56-5.17A118.73,118.73,0,0,1,499,245Z"/><path d="M556.24,289.43l-67.55-5.32.08-1a119.6,119.6,0,0,1,9.25-38.5l.38-.93,62.65,26-.39.92a58.17,58.17,0,0,0-4.34,17.87Zm-65.4-7.16,63.58,5a59.85,59.85,0,0,1,4-16.56L499.49,246.3A117,117,0,0,0,490.84,282.27Z"/><path d="M567.41,410.37l-.92-.38c-51.61-21.39-82.11-71.19-77.72-126.88l.08-1,67.55,5.33-.08,1a58.75,58.75,0,0,0,36.13,58.89l.93.39Zm-76.72-126.1c-3.86,54.07,25.71,102.36,75.64,123.48l24.44-59a60.75,60.75,0,0,1-36.51-59.51Z"/><path class="cls-3" d="M592.07,348.25l-25.2,60.82c-51.26-21.25-81.47-70.57-77.1-125.88l65.56,5.17a59.74,59.74,0,0,0,36.74,59.89Z"/><path class="cls-6" d="M567.41,410.37l-.92-.38c-51.61-21.39-82.11-71.19-77.72-126.88l.08-1,67.55,5.33-.08,1a58.75,58.75,0,0,0,36.13,58.89l.93.39Zm-76.72-126.1c-3.86,54.07,25.71,102.36,75.64,123.48l24.44-59a60.75,60.75,0,0,1-36.51-59.51Z"/><path d="M614.05,419.9c-16,0-31.56-3.28-47.57-9.91l-.92-.38,26-62.66.93.38a58.32,58.32,0,0,0,36,2.8l1.1-.26,15.84,66-1,.23A129.37,129.37,0,0,1,614.05,419.9Zm-45.88-11.37c24.89,10.1,48.72,12,74.86,5.89l-14.91-62.15a60.16,60.16,0,0,1-35.5-2.72Z"/><path class="cls-4" d="M628.86,351.07l15.37,64.09c-27,6.47-51.73,4.51-77.36-6.09l25.2-60.82a59.42,59.42,0,0,0,36.66,2.85Z"/><path class="cls-6" d="M614.05,419.9c-16,0-31.56-3.28-47.57-9.91l-.92-.38,26-62.66.93.38a58.32,58.32,0,0,0,36,2.8l1.1-.26,15.84,66-1,.23A129.37,129.37,0,0,1,614.05,419.9Zm-45.88-11.37c24.89,10.1,48.72,12,74.86,5.89l-14.91-62.15a60.16,60.16,0,0,1-35.5-2.72Z"/><path class="cls-7" d="M740.52,295.19a125.64,125.64,0,0,1-96.29,120l-15.38-64.09a59.66,59.66,0,0,0-27.83-116L585.65,171A125.69,125.69,0,0,1,740.52,295.19Z"/><path d="M643.49,416.36l-15.84-66,1-.23A58.66,58.66,0,0,0,601.25,236l-1,.23-.23-1-15.6-65.06,1-.24a126.57,126.57,0,1,1,59.05,246.15ZM630.06,351.8,645,414a124.61,124.61,0,0,0,94.55-118.78h0A124.55,124.55,0,0,0,586.86,171.7l14.9,62.15a60.66,60.66,0,0,1,28.3,118Z"/><path class="cls-3" d="M1067.06,334.06h0a97.26,97.26,0,0,1-109.84,83.25L826.8,399.08l-68.55-9-1.26-.18-54-7.32-12.72-1.72a30.74,30.74,0,1,1,8.26-60.93L730,324.18a35.57,35.57,0,0,0,40-30.47h0a35.57,35.57,0,0,0-30.48-40l-5.61-.76a125.92,125.92,0,0,0-58.81-70l108,14.64,0-.13,24.24,3.19,97.94,12.87,79.11,11.25A97.26,97.26,0,0,1,1067.06,334.06Z"/><path d="M970.9,419.26a100.64,100.64,0,0,1-13.82-1L826.66,400.07l-69.81-9.19-66.66-9a31.74,31.74,0,0,1-8.8-60.38,31.21,31.21,0,0,1,13-2.82,30.79,30.79,0,0,1,4.31.29l31.41,4.26a35.07,35.07,0,0,0,6.38.27A34.53,34.53,0,0,0,769,293.64v-.08a34.56,34.56,0,0,0-29.62-38.91l-6.23-.85-.19-.58a124.37,124.37,0,0,0-58.35-69.48l-4.74-2.59,112.33,15.23,0-.12,123.15,16.19,79.12,11.26a98.24,98.24,0,0,1,83.52,110.48l-1-.13,1,.13a98.29,98.29,0,0,1-97.15,85.07ZM694.41,320.64A29.77,29.77,0,0,0,665,346.38a29.75,29.75,0,0,0,25.48,33.48l67.94,9.22,68.53,9,130.43,18.23a96.26,96.26,0,0,0,108.71-82.4h0a96.49,96.49,0,0,0-81.82-108.23l-79.11-11.26L784,198.5l0,.13-1-.13L680.07,184.55A126.29,126.29,0,0,1,734.69,252l5,.68A36.56,36.56,0,0,1,771,293.76v.08a36.55,36.55,0,0,1-34.42,31.62,37.38,37.38,0,0,1-6.75-.29l-31.41-4.26A30,30,0,0,0,694.41,320.64Z"/><polygon points="827.61 400.48 758.12 391.06 758.38 389.08 827.94 398.22 827.61 400.48"/><path class="cls-3" d="M879.62,209.46l-49.77-6.55L731.91,190l-23-14.33A30.74,30.74,0,0,1,699,133.37c.59-.94,1.22-1.85,1.88-2.7a30.73,30.73,0,0,1,40.46-7.18l14,8.68,26.36,16.39Z"/><path d="M884.08,211.05,731.57,191l-.18-.11-23-14.33a31.73,31.73,0,0,1-10.2-43.72c.62-1,1.27-1.93,1.93-2.79a31.74,31.74,0,0,1,41.78-7.41Zm-151.82-22,142.9,18.79L740.8,124.34a29.74,29.74,0,0,0-39.15,6.94c-.62.8-1.23,1.68-1.82,2.62a29.75,29.75,0,0,0,9.56,41Z"/><path class="cls-3" d="M922.85,215.1l0,0-43.19-5.67-98-60.9L764.33,129a30.75,30.75,0,1,1,46-40.8l10.37,11.69Z"/><path d="M923.1,216.17l-43.82-5.75-.18-.11-98.1-61-17.41-19.64a31.75,31.75,0,0,1,47.5-42.13L924.31,215.23ZM880,208.49l40.39,5.31L809.6,88.89a29.75,29.75,0,0,0-44.52,39.47l17.23,19.42Z"/><path class="cls-9" d="M716,351.13h0a23.56,23.56,0,0,1-26.7,20l-19.92-2.87a30.73,30.73,0,0,1,12.39-45.85l14.27,2.06A23.56,23.56,0,0,1,716,351.13Z"/><path d="M692.75,372.34a23.79,23.79,0,0,1-3.56-.26l-20.34-2.93-.25-.35a31.72,31.72,0,0,1,12.79-47.34l.27-.12,14.55,2.1a24.58,24.58,0,0,1-3.46,48.9Zm-22.77-5,19.49,2.82A22.58,22.58,0,0,0,715,351h0a22.56,22.56,0,0,0-19.11-25.57l-14-2a29.74,29.74,0,0,0-12,43.89Z"/><path class="cls-9" d="M755.29,132.17l-2.45,3.5A25.75,25.75,0,0,1,717,142l-16.12-11.3a30.73,30.73,0,0,1,40.46-7.18Z"/><path d="M731.72,147.62a26.6,26.6,0,0,1-15.32-4.84l-17-11.9.65-.83a31.73,31.73,0,0,1,41.77-7.41l14.87,9.24-3.06,4.37A26.74,26.74,0,0,1,731.72,147.62Zm-29.41-17.16,15.24,10.69A24.78,24.78,0,0,0,752,135.1l1.85-2.64-13.07-8.12a29.75,29.75,0,0,0-38.49,6.12Z"/><path class="cls-9" d="M820.71,99.92h0a25.74,25.74,0,0,1-36.22-3.62l-12-14.61a30.73,30.73,0,0,1,37.82,6.54Z"/><path d="M804.43,106.73a26.69,26.69,0,0,1-20.71-9.8L771,81.39l1-.58a31.75,31.75,0,0,1,39.05,6.75L822.15,100l-.8.66A26.64,26.64,0,0,1,804.43,106.73ZM774.07,82l11.19,13.67a24.79,24.79,0,0,0,34,4.12l-9.66-10.9A29.76,29.76,0,0,0,774.07,82Z"/><path class="cls-1" d="M312.52,242.25A161.46,161.46,0,1,0,368,463.75,161.47,161.47,0,0,0,312.52,242.25ZM354.21,455.5A145.42,145.42,0,1,1,304.27,256,145.44,145.44,0,0,1,354.21,455.5Z"/><path d="M48.84,491.27H118.6a0,0,0,0,1,0,0V716a34.67,34.67,0,0,1-34.67,34.67h-.43A34.67,34.67,0,0,1,48.84,716V491.27a0,0,0,0,1,0,0Z" transform="translate(331.25 45.35) rotate(30.95)"/><polygon points="7.97 174.65 6.54 173.25 16.49 163.09 26.65 173.04 25.25 174.47 16.52 165.92 7.97 174.65"/><polygon points="309.89 470.66 308.46 469.27 317.01 460.53 308.28 451.98 309.68 450.55 319.84 460.5 309.89 470.66"/><polygon points="502.76 445.41 501.33 444.01 511.28 433.84 521.45 443.79 520.05 445.22 511.31 436.67 502.76 445.41"/><polygon points="689.51 614.95 688.08 613.55 696.63 604.81 687.89 596.26 689.29 594.83 699.46 604.78 689.51 614.95"/></g></g></svg>